{
  "accessors": [
    {
      "bufferView": 2,
      "componentType": 5126,
      "count": 65532,
      "max": [
        288.4781799316406,
        47.75253677368164,
        160.52566528320313
      ],
      "min": [
        -289.5218200683594,
        -49.09551239013672,
        -16.542097091674805
      ],
      "type": "VEC3"
    },
    {
      "bufferView": 2,
      "byteOffset": 786384,
      "componentType": 5126,
      "count": 65532,
      "max": [
        1.0,
        1.0,
        1.0
      ],
      "min": [
        -1.0,
        -1.0,
        -1.0
      ],
      "type": "VEC3"
    },
    {
      "bufferView": 1,
      "componentType": 5126,
      "count": 65532,
      "max": [
        0.9293501973152161,
        0.9590936899185181
      ],
      "min": [
        0.010603991337120533,
        0.04864656925201416
      ],
      "type": "VEC2"
    },
    {
      "bufferView": 0,
      "componentType": 5125,
      "count": 372066,
      "type": "SCALAR"
    },
    {
      "bufferView": 2,
      "byteOffset": 1572768,
      "componentType": 5126,
      "count": 65532,
      "max": [
        201.7322998046875,
        47.75253677368164,
        80.63548278808594
      ],
      "min": [
        -200.779296875,
        -38.44326400756836,
        -197.63494873046875
      ],
      "type": "VEC3"
    },
    {
      "bufferView": 2,
      "byteOffset": 2359152,
      "componentType": 5126,
      "count": 65532,
      "max": [
        1.0,
        1.0,
        1.0
      ],
      "min": [
        -1.0,
        -1.0,
        -1.0
      ],
      "type": "VEC3"
    },
    {
      "bufferView": 1,
      "byteOffset": 524256,
      "componentType": 5126,
      "count": 65532,
      "max": [
        0.9252464771270752,
        0.9579088091850281
      ],
      "min": [
        0.00989911612123251,
        0.043807148933410645
      ],
      "type": "VEC2"
    },
    {
      "bufferView": 0,
      "byteOffset": 1488264,
      "componentType": 5125,
      "count": 347553,
      "type": "SCALAR"
    },
    {
      "bufferView": 2,
      "byteOffset": 3145536,
      "componentType": 5126,
      "count": 65532,
      "max": [
        211.91531372070313,
        56.9664421081543,
        -86.60028076171875
      ],
      "min": [
        -82.8795166015625,
        -39.876220703125,
        -218.25405883789063
      ],
      "type": "VEC3"
    },
    {
      "bufferView": 2,
      "byteOffset": 3931920,
      "componentType": 5126,
      "count": 65532,
      "max": [
        1.0,
        1.0,
        1.0
      ],
      "min": [
        -1.0,
        -1.0,
        -1.0
      ],
      "type": "VEC3"
    },
    {
      "bufferView": 1,
      "byteOffset": 1048512,
      "componentType": 5126,
      "count": 65532,
      "max": [
        0.9031760692596436,
        0.7973726391792297
      ],
      "min": [
        0.18452230095863342,
        0.1344454288482666
      ],
      "type": "VEC2"
    },
    {
      "bufferView": 0,
      "byteOffset": 2878476,
      "componentType": 5125,
      "count": 370470,
      "type": "SCALAR"
    },
    {
      "bufferView": 2,
      "byteOffset": 4718304,
      "componentType": 5126,
      "count": 65532,
      "max": [
        209.29168701171875,
        56.44683837890625,
        -86.60028076171875
      ],
      "min": [
        -210.87167358398438,
        3.5307676792144775,
        -218.25405883789063
      ],
      "type": "VEC3"
    },
    {
      "bufferView": 2,
      "byteOffset": 5504688,
      "componentType": 5126,
      "count": 65532,
      "max": [
        1.0,
        1.0,
        1.0
      ],
      "min": [
        -1.0,
        -1.0,
        -1.0
      ],
      "type": "VEC3"
    },
    {
      "bufferView": 1,
      "byteOffset": 1572768,
      "componentType": 5126,
      "count": 65532,
      "max": [
        0.9070113897323608,
        0.8064852952957153
      ],
      "min": [
        0.18098744750022888,
        0.09712398052215576
      ],
      "type": "VEC2"
    },
    {
      "bufferView": 0,
      "byteOffset": 4360356,
      "componentType": 5125,
      "count": 361035,
      "type": "SCALAR"
    },
    {
      "bufferView": 2,
      "byteOffset": 6291072,
      "componentType": 5126,
      "count": 65532,
      "max": [
        242.38296508789063,
        56.9664421081543,
        55.336002349853516
      ],
      "min": [
        -241.33932495117188,
        -39.876220703125,
        -218.25405883789063
      ],
      "type": "VEC3"
    },
    {
      "bufferView": 2,
      "byteOffset": 7077456,
      "componentType": 5126,
      "count": 65532,
      "max": [
        1.0,
        1.0,
        1.0
      ],
      "min": [
        -1.0,
        -1.0,
        -1.0
      ],
      "type": "VEC3"
    },
    {
      "bufferView": 1,
      "byteOffset": 2097024,
      "componentType": 5126,
      "count": 65532,
      "max": [
        0.9299166202545166,
        0.9625340104103088
      ],
      "min": [
        0.008815163746476173,
        0.04627490043640137
      ],
      "type": "VEC2"
    },
    {
      "bufferView": 0,
      "byteOffset": 5804496,
      "componentType": 5125,
      "count": 348126,
      "type": "SCALAR"
    },
    {
      "bufferView": 2,
      "byteOffset": 7863840,
      "componentType": 5126,
      "count": 62843,
      "max": [
        245.82293701171875,
        47.75252914428711,
        109.15921020507813
      ],
      "min": [
        -244.779296875,
        -36.49092102050781,
        -160.33062744140625
      ],
      "type": "VEC3"
    },
    {
      "bufferView": 2,
      "byteOffset": 8617956,
      "componentType": 5126,
      "count": 62843,
      "max": [
        1.0,
        1.0,
        1.0
      ],
      "min": [
        -1.0,
        -1.0,
        -1.0
      ],
      "type": "VEC3"
    },
    {
      "bufferView": 1,
      "byteOffset": 2621280,
      "componentType": 5126,
      "count": 62843,
      "max": [
        0.998630166053772,
        0.9997326731681824
      ],
      "min": [
        0.0002673371054697782,
        0.001507401466369629
      ],
      "type": "VEC2"
    },
    {
      "bufferView": 0,
      "byteOffset": 7197000,
      "componentType": 5125,
      "count": 296616,
      "type": "SCALAR"
    }
  ],
  "asset": {
    "extras": {
      "author": "WeSVa (https://sketchfab.com/WSVideoCarta)",
      "license": "SKETCHFAB Standard (https://sketchfab.com/licenses)",
      "source": "https://sketchfab.com/3d-models/space-ship-dreadnought-b75756665b25401c89aceae6099571f7",
      "title": "Space Ship Dreadnought"
    },
    "generator": "Sketchfab-16.58.0",
    "version": "2.0"
  },
  "bufferViews": [
    {
      "buffer": 0,
      "byteLength": 8383464,
      "name": "floatBufferViews",
      "target": 34963
    },
    {
      "buffer": 0,
      "byteLength": 3124024,
      "byteOffset": 8383464,
      "byteStride": 8,
      "name": "floatBufferViews",
      "target": 34962
    },
    {
      "buffer": 0,
      "byteLength": 9372072,
      "byteOffset": 11507488,
      "byteStride": 12,
      "name": "floatBufferViews",
      "target": 34962
    }
  ],
  "buffers": [
    {
      "byteLength": 20879560,
      "uri": "scene.bin"
    }
  ],
  "extensionsUsed": [
    "KHR_materials_emissive_strength"
  ],
  "images": [
    {
      "uri": "textures/Scene_-_Root_baseColor.png"
    },
    {
      "uri": "textures/Scene_-_Root_metallicRoughness.png"
    },
    {
      "uri": "textures/Scene_-_Root_emissive.png"
    }
  ],
  "materials": [
    {
      "doubleSided": true,
      "emissiveFactor": [
        1.0,
        1.0,
        1.0
      ],
      "emissiveTexture": {
        "index": 2
      },
      "extensions": {
        "KHR_materials_emissive_strength": {
          "emissiveStrength": 10.0
        }
      },
      "name": "Scene_-_Root",
      "occlusionTexture": {
        "index": 1
      },
      "pbrMetallicRoughness": {
        "baseColorTexture": {
          "index": 0
        },
        "metallicRoughnessTexture": {
          "index": 1
        }
      }
    }
  ],
  "meshes": [
    {
      "name": "Subdivision_Surface_1__0",
      "primitives": [
        {
          "attributes": {
            "NORMAL": 1,
            "POSITION": 0,
            "TEXCOORD_0": 2
          },
          "indices": 3,
          "material": 0,
          "mode": 4
        }
      ]
    },
    {
      "name": "Subdivision_Surface_1__0",
      "primitives": [
        {
          "attributes": {
            "NORMAL": 5,
            "POSITION": 4,
            "TEXCOORD_0": 6
          },
          "indices": 7,
          "material": 0,
          "mode": 4
        }
      ]
    },
    {
      "name": "Subdivision_Surface_1__0",
      "primitives": [
        {
          "attributes": {
            "NORMAL": 9,
            "POSITION": 8,
            "TEXCOORD_0": 10
          },
          "indices": 11,
          "material": 0,
          "mode": 4
        }
      ]
    },
    {
      "name": "Subdivision_Surface_1__0",
      "primitives": [
        {
          "attributes": {
            "NORMAL": 13,
            "POSITION": 12,
            "TEXCOORD_0": 14
          },
          "indices": 15,
          "material": 0,
          "mode": 4
        }
      ]
    },
    {
      "name": "Subdivision_Surface_1__0",
      "primitives": [
        {
          "attributes": {
            "NORMAL": 17,
            "POSITION": 16,
            "TEXCOORD_0": 18
          },
          "indices": 19,
          "material": 0,
          "mode": 4
        }
      ]
    },
    {
      "name": "Subdivision_Surface_1__0",
      "primitives": [
        {
          "attributes": {
            "NORMAL": 21,
            "POSITION": 20,
            "TEXCOORD_0": 22
          },
          "indices": 23,
          "material": 0,
          "mode": 4
        }
      ]
    }
  ],
  "nodes": [
    {
      "children": [
        1
      ],
      "matrix": [
        1.0,
        0.0,
        0.0,
        0.0,
        0.0,
        2.220446049250313e-16,
        -1.0,
        0.0,
        0.0,
        1.0,
        2.220446049250313e-16,
        0.0,
        0.0,
        0.0,
        0.0,
        1.0
      ],
      "name": "Sketchfab_model"
    },
    {
      "children": [
        2
      ],
      "matrix": [
        0.009999999776482582,
        0.0,
        0.0,
        0.0,
        0.0,
        0.0,
        0.009999999776482582,
        0.0,
        0.0,
        -0.009999999776482582,
        0.0,
        0.0,
        0.0,
        0.0,
        0.0,
        1.0
      ],
      "name": "Drednaud.fbx"
    },
    {
      "children": [
        3,
        5
      ],
      "name": "RootNode"
    },
    {
      "children": [
        4
      ],
      "matrix": [
        0.6682558846764326,
        -0.3125875369156134,
        -0.6750726659851874,
        0.0,
        0.21990829491141092,
        0.9498889575971656,
        -0.2221515475168379,
        0.0,
        0.7106858760552895,
        5.551115123125783e-17,
        0.7035094779571386,
        0.0,
        -474.5356140136719,
        420.3492736816406,
        391.7669677734375,
        1.0
      ],
      "name": "CINEMA_4D_Editor"
    },
    {
      "name": "Object_4"
    },
    {
      "children": [
        6,
        7,
        8,
        9,
        10,
        11
      ],
      "matrix": [
        1.0,
        0.0,
        0.0,
        0.0,
        0.0,
        1.0,
        0.0,
        0.0,
        0.0,
        0.0,
        1.0,
        0.0,
        -0.5218225121498108,
        199.89537048339844,
        -115.33221435546875,
        1.0
      ],
      "name": "Subdivision_Surface_1"
    },
    {
      "mesh": 0,
      "name": "Subdivision_Surface_1__0"
    },
    {
      "mesh": 1,
      "name": "Subdivision_Surface_1__0"
    },
    {
      "mesh": 2,
      "name": "Subdivision_Surface_1__0"
    },
    {
      "mesh": 3,
      "name": "Subdivision_Surface_1__0"
    },
    {
      "mesh": 4,
      "name": "Subdivision_Surface_1__0"
    },
    {
      "mesh": 5,
      "name": "Subdivision_Surface_1__0"
    }
  ],
  "samplers": [
    {
      "magFilter": 9729,
      "minFilter": 9987,
      "wrapS": 10497,
      "wrapT": 10497
    }
  ],
  "scene": 0,
  "scenes": [
    {
      "name": "Sketchfab_Scene",
      "nodes": [
        0
      ]
    }
  ],
  "textures": [
    {
      "sampler": 0,
      "source": 0
    },
    {
      "sampler": 0,
      "source": 1
    },
    {
      "sampler": 0,
      "source": 2
    }
  ]
}
